<svg xmlns="http://www.w3.org/2000/svg" version="1.1" xmlns:xlink="http://www.w3.org/1999/xlink" xmlns:svgjs="http://svgjs.dev/svgjs" width="2000" height="1500" viewBox="0 0 2000 1500"><rect width="2000" height="1500" fill="#f9cdff"></rect><g transform="matrix(0.4275331338178709,0,0,0.4275331338178709,571.4593363591628,248.38709677419354)"><svg viewBox="0 0 212 248" data-background-color="#f9cdff" preserveAspectRatio="xMidYMid meet" height="2339" width="2000" xmlns="http://www.w3.org/2000/svg" xmlns:xlink="http://www.w3.org/1999/xlink"><g id="tight-bounds" transform="matrix(1,0,0,1,0.25129140609683986,0.4000000000000057)"><svg viewBox="0 0 211.49890769477582 247.2" height="247.2" width="211.49890769477582"><g><svg viewBox="0 0 395.52000000000004 462.2839194096465" height="247.2" width="211.49890769477582"><g transform="matrix(1,0,0,1,0,222.27158061064424)"><svg viewBox="0 0 395.52000000000004 240.0123387990023" height="240.0123387990023" width="395.52000000000004"><g id="textblocktransform"><svg viewBox="0 0 395.52000000000004 240.0123387990023" height="240.0123387990023" width="395.52000000000004" id="textblock"><g><svg viewBox="0 0 395.52000000000004 147.48288413976792" height="147.48288413976792" width="395.52000000000004"><g transform="matrix(1,0,0,1,0,0)"><svg width="395.52000000000004" viewBox="0.99444455556 -35.8 98.55555544444 36.75" height="147.48288413976792" data-palette-color="#a997ad"><path d="M24.7-13.25L32.85-34 32.85-35 35.85-35Q37.3-35 39.3-35.1 41.3-35.2 42.7-35.25L42.7-35.25Q42.85-34.3 42.6-33.5L42.6-33.5Q41.5-33.3 40.5-33.1 39.5-32.9 38.6-32.5L38.6-32.5 41.1-2.5 44.95-1.5Q45.1-0.55 44.7 0.25L44.7 0.25Q43.35 0.15 41.68 0.08 40 0 38.6 0L38.6 0Q37.2 0 35.18 0.08 33.15 0.15 31.75 0.25L31.75 0.25Q31.6-0.7 31.85-1.5L31.85-1.5Q32.95-1.7 34-1.85 35.05-2 35.85-2.5L35.85-2.5 33.75-24.4Q33.7-25.1 33.68-25.8 33.65-26.5 33.65-27.2L33.65-27.2Q33.65-27.75 33.65-28.35 33.65-28.95 33.7-29.5L33.7-29.5 33.55-29.5Q33.2-28.25 32.83-26.98 32.45-25.7 31.95-24.4L31.95-24.4 22.9-1.55Q21.95-1 21.1-1.05L21.1-1.05 11.25-24.4Q10.8-25.55 10.4-26.83 10-28.1 9.6-29.5L9.6-29.5 9.45-29.5 9.3-24.35 8.05-2.45 11.9-1.45Q12.05-0.5 11.65 0.3L11.65 0.3Q10.3 0.2 9.05 0.1 7.8 0 6.4 0L6.4 0Q5 0 3.73 0.08 2.45 0.15 1.05 0.25L1.05 0.25Q0.9-0.7 1.15-1.5L1.15-1.5Q2.15-1.65 3.13-1.9 4.1-2.15 5.05-2.5L5.05-2.5 7.05-32.5 3.2-33.5Q3.05-34.45 3.45-35.25L3.45-35.25Q4.8-35.2 6.48-35.1 8.15-35 9.55-35L9.55-35 12.8-35 12.8-34 20.95-13.25Q21.6-11.7 22-10.3 22.4-8.9 22.75-7.35L22.75-7.35 22.85-7.35Q23.25-8.95 23.7-10.38 24.15-11.8 24.7-13.25L24.7-13.25ZM57-17L57-2.45 61.75-1.5Q61.9-0.55 61.5 0.25L61.5 0.25Q60.6 0.2 59.25 0.15 57.9 0.1 56.55 0.05 55.2 0 54.25 0L54.25 0Q52.85 0 51.25 0.08 49.65 0.15 48.25 0.25L48.25 0.25Q48.1-0.7 48.35-1.5L48.35-1.5Q49.2-1.7 50-1.85 50.8-2 51.75-2.5L51.75-2.5 51.75-32.5 47.9-33.5Q47.75-34.45 48.15-35.25L48.15-35.25Q49.5-35.2 51.17-35.1 52.85-35 54.25-35L54.25-35 73-35Q73.05-34.5 73.05-34.02 73.05-33.55 73.05-33.05L73.05-33.05Q73.05-31.3 72.87-29.6 72.7-27.9 72.45-26.25L72.45-26.25Q71.95-26.05 71.6-26.05 71.25-26.05 70.65-26.1L70.65-26.1 69.4-32.75 57-32.75 57-19.75 64.85-19.75 65.8-24.15Q66.25-24.3 66.8-24.28 67.35-24.25 67.8-23.9L67.8-23.9Q67.7-22.8 67.65-21.4 67.6-20 67.6-18.55L67.6-18.55Q67.6-16.95 67.65-15.4 67.7-13.85 67.8-12.65L67.8-12.65Q67.35-12.45 66.8-12.45 66.25-12.45 65.8-12.55L65.8-12.55 64.85-17 57-17ZM86.85 0.95L86.85 0.95Q84 0.95 81.22 0.55 78.45 0.15 76.4-0.8L76.4-0.8Q76.4-2.95 76.72-5.13 77.05-7.3 77.7-9.5L77.7-9.5Q77.85-9.5 78-9.53 78.15-9.55 78.35-9.55L78.35-9.55Q79.25-9.55 79.9-9.25L79.9-9.25 80.7-2.6Q81.65-2.4 83.02-2.13 84.4-1.85 86.1-1.85L86.1-1.85Q87.9-1.85 89.8-2.3 91.7-2.75 93-3.93 94.3-5.1 94.3-7.3L94.3-7.3Q94.3-8.6 94.02-9.65 93.75-10.7 92.8-11.7 91.85-12.7 89.9-13.83 87.95-14.95 84.6-16.4L84.6-16.4Q81-18 79.27-19.6 77.55-21.2 77.05-22.98 76.55-24.75 76.55-26.8L76.55-26.8Q76.55-29.95 78.37-31.93 80.2-33.9 83.15-34.85 86.1-35.8 89.4-35.8L89.4-35.8Q91.6-35.8 93.8-35.43 96-35.05 97.9-34.3L97.9-34.3Q98-32 97.52-29.93 97.05-27.85 96.35-25.85L96.35-25.85Q96.2-25.8 96.02-25.8 95.85-25.8 95.7-25.8L95.7-25.8Q94.85-25.8 94.15-26.1L94.15-26.1 93.6-32.75Q92.55-33.05 91.4-33.23 90.25-33.4 89.1-33.4L89.1-33.4Q87.15-33.4 85.35-32.83 83.55-32.25 82.42-31 81.3-29.75 81.3-27.65L81.3-27.65Q81.3-26.25 81.8-25.13 82.3-24 83.82-22.93 85.35-21.85 88.45-20.45L88.45-20.45Q92.35-18.75 94.8-17.25 97.25-15.75 98.4-13.8 99.55-11.85 99.55-8.7L99.55-8.7Q99.55-6.25 98.45-4.42 97.35-2.6 95.5-1.43 93.65-0.25 91.4 0.35 89.15 0.95 86.85 0.95Z" opacity="1" transform="matrix(1,0,0,1,0,0)" fill="#a997ad" class="wordmark-text-0" data-fill-palette-color="primary" id="text-0"></path></svg></g></svg></g><g transform="matrix(1,0,0,1,0,182.30005349594776)"><svg viewBox="0 0 395.52000000000004 57.71228530305453" height="57.71228530305453" width="395.52000000000004"><g transform="matrix(1,0,0,1,0,0)"><svg width="395.52000000000004" viewBox="3 -36 312.61 45.62037037037037" height="57.71228530305453" data-palette-color="#a997ad"><path d="M17.5 0L13.5 0 21.35-35.25 25.3-35.25 17.5 0ZM17.3 0L13.35 0 5.5-35.25 9.5-35.25 17.3 0ZM7.55 0L3 0 3-35.25 7.55-35.25 7.55 0ZM27.85 0L23.3 0 23.3-35.25 27.85-35.25 27.85 0ZM34.05 9.25L34.05 9.25 35 5.5Q36.95 6 38.25 5.25 39.55 4.5 40.3 2.15L40.3 2.15 44.5 2.15Q43 6.85 40.37 8.55 37.75 10.25 34.05 9.25ZM44.5 2.15L40.3 2.15 48.85-25.25 53.4-25.25 44.5 2.15ZM43.4-4.5L41.15 1.85 32.35-25.25 36.9-25.25 43.4-4.5ZM80.69-15.55L70.59-15.55 70.59-19.6 80.69-19.6 80.69-15.55ZM67.29 0L67.29-35.25 71.84-35.25 71.84 0 67.29 0ZM70.34-31.3L70.34-35.25 83.19-35.25 83.19-31.3 70.34-31.3ZM104.14 0L99.59 0 99.59-17.2 104.14-17.2 104.14 0ZM93.49 0.75L93.49 0.75 93.84-3Q95.64-3 96.92-3.9 98.19-4.8 98.89-6.55 99.59-8.3 99.59-10.7L99.59-10.7 101.84-10.8Q101.84-7.4 100.74-4.8 99.64-2.2 97.77-0.73 95.89 0.75 93.49 0.75ZM93.84-3L93.49 0.75Q91.24 0.75 89.39-0.3 87.54-1.35 86.44-3.18 85.34-5 85.34-7.25L85.34-7.25 89.64-7.4Q89.64-5.5 90.92-4.25 92.19-3 93.84-3L93.84-3ZM89.64-7.4L85.34-7.25Q85.34-9.6 86.52-11.38 87.69-13.15 89.69-14.2 91.69-15.25 94.24-15.25L94.24-15.25 94.49-11.75Q92.39-11.75 91.02-10.53 89.64-9.3 89.64-7.4L89.64-7.4ZM101.94-11.75L94.49-11.75 94.24-15.25 101.94-15.25 101.94-11.75ZM101.84-10.8L99.59-10.7 99.59-17.15 101.84-17.15 101.84-10.8ZM104.14-17.1L104.14-17.1 99.59-17.1Q99.59-19.3 98.27-20.7 96.94-22.1 94.84-22.1L94.84-22.1 94.84-26Q97.54-26 99.62-24.85 101.69-23.7 102.92-21.68 104.14-19.65 104.14-17.1ZM90.14-17.7L90.14-17.7 85.94-18.55Q86.24-20.8 87.47-22.45 88.69-24.1 90.62-25.05 92.54-26 94.89-26L94.89-26 94.89-22.1Q93.04-22.1 91.72-21.03 90.39-19.95 90.14-17.7ZM121.24-6.5L121.24-6.5Q121.24-7.75 120.34-8.58 119.44-9.4 118.01-10.08 116.59-10.75 115.01-11.45 113.44-12.15 112.01-13.08 110.59-14 109.69-15.43 108.79-16.85 108.79-18.9L108.79-18.9Q108.79-18.9 109.21-18.9 109.64-18.9 110.31-18.9 110.99-18.9 111.64-18.9 112.29-18.9 112.74-18.9 113.19-18.9 113.19-18.9L113.19-18.9Q113.19-17.65 114.09-16.82 114.99-16 116.41-15.35 117.84-14.7 119.44-13.98 121.04-13.25 122.44-12.3 123.84-11.35 124.76-9.98 125.69-8.6 125.69-6.5L125.69-6.5Q125.69-6.5 125.24-6.5 124.79-6.5 124.11-6.5 123.44-6.5 122.79-6.5 122.14-6.5 121.69-6.5 121.24-6.5 121.24-6.5ZM116.99 0.75L116.99 0.75 116.99-3.2Q118.84-3.2 120.04-4.13 121.24-5.05 121.24-6.5L121.24-6.5 125.69-6.5Q125.69-4.4 124.56-2.75 123.44-1.1 121.49-0.18 119.54 0.75 116.99 0.75ZM113.19-18.9L108.79-18.9Q108.79-20.95 109.81-22.58 110.84-24.2 112.69-25.13 114.54-26.05 116.79-26.05L116.79-26.05 116.79-22.1Q115.24-22.1 114.21-21.2 113.19-20.3 113.19-18.9L113.19-18.9ZM108.04-6.7L112.24-7.55Q112.49-5.35 113.84-4.28 115.19-3.2 116.99-3.2L116.99-3.2 116.99 0.75Q114.69 0.75 112.74-0.2 110.79-1.15 109.56-2.85 108.34-4.55 108.04-6.7L108.04-6.7ZM125.74-18.6L121.49-17.75Q121.24-20 119.91-21.05 118.59-22.1 116.79-22.1L116.79-22.1 116.79-26.05Q119.14-26.05 121.04-25.1 122.94-24.15 124.19-22.48 125.44-20.8 125.74-18.6L125.74-18.6ZM134.94 0L130.39 0 130.39-25.25 134.94-25.25 134.94 0ZM148.99 0L144.44 0 144.44-17.2 148.99-17.2 148.99 0ZM148.99-17.2L144.44-17.2Q144.44-19.3 143.14-20.63 141.84-21.95 139.79-21.95L139.79-21.95 140.94-26Q143.24-26 145.06-24.85 146.89-23.7 147.94-21.7 148.99-19.7 148.99-17.2L148.99-17.2ZM134.94-17.1L132.94-17.1Q132.94-19.65 133.99-21.68 135.04-23.7 136.84-24.85 138.64-26 140.94-26L140.94-26 139.79-21.95Q137.64-21.95 136.29-20.6 134.94-19.25 134.94-17.1L134.94-17.1ZM134.94 0L130.39 0 130.39-36 134.94-36 134.94 0ZM159.18 0L154.63 0 154.63-25.25 159.18-25.25 159.18 0ZM156.88-28.6L156.88-28.6Q155.63-28.6 154.78-29.45 153.93-30.3 153.93-31.55L153.93-31.55Q153.93-32.8 154.78-33.68 155.63-34.55 156.88-34.55L156.88-34.55Q158.13-34.55 159.01-33.68 159.88-32.8 159.88-31.55L159.88-31.55Q159.88-30.3 159.01-29.45 158.13-28.6 156.88-28.6ZM182.93-8.95L178.38-8.95 178.38-16.3 182.93-16.3 182.93-8.95ZM168.88-8.95L164.33-8.95 164.33-16.3 168.88-16.3 168.88-8.95ZM173.78-22.05L173.48-22.05 173.48-26 173.78-26 173.78-22.05ZM173.78 0.75L173.48 0.75 173.48-3.2 173.78-3.2 173.78 0.75ZM168.88-16.25L164.33-16.25Q164.33-19.05 165.56-21.25 166.78-23.45 168.86-24.73 170.93-26 173.58-26L173.58-26 173.58-22.05Q171.38-22.05 170.13-20.55 168.88-19.05 168.88-16.25L168.88-16.25ZM182.93-16.25L182.93-16.25 178.38-16.25Q178.38-19.05 177.16-20.55 175.93-22.05 173.68-22.05L173.68-22.05 173.68-26Q176.33-26 178.41-24.73 180.48-23.45 181.71-21.25 182.93-19.05 182.93-16.25ZM164.33-9L164.33-9 168.88-9Q168.88-6.25 170.13-4.73 171.38-3.2 173.58-3.2L173.58-3.2 173.58 0.75Q170.93 0.75 168.86-0.53 166.78-1.8 165.56-4 164.33-6.2 164.33-9ZM178.38-9L182.93-9Q182.93-6.2 181.71-4 180.48-1.8 178.41-0.53 176.33 0.75 173.68 0.75L173.68 0.75 173.68-3.2Q175.93-3.2 177.16-4.73 178.38-6.25 178.38-9L178.38-9ZM192.13 0L187.58 0 187.58-25.25 192.13-25.25 192.13 0ZM206.18 0L201.63 0 201.63-17.2 206.18-17.2 206.18 0ZM206.18-17.2L201.63-17.2Q201.63-19.3 200.33-20.63 199.03-21.95 196.98-21.95L196.98-21.95 198.13-26Q200.43-26 202.25-24.85 204.08-23.7 205.13-21.7 206.18-19.7 206.18-17.2L206.18-17.2ZM192.13-17.1L190.13-17.1Q190.13-19.65 191.18-21.68 192.23-23.7 194.03-24.85 195.83-26 198.13-26L198.13-26 196.98-21.95Q194.83-21.95 193.48-20.6 192.13-19.25 192.13-17.1L192.13-17.1ZM239.62-7.9L235.07-7.9Q235.07-9.75 234.02-11.18 232.97-12.6 231.32-13.85 229.67-15.1 227.8-16.4 225.92-17.7 224.27-19.25 222.62-20.8 221.57-22.78 220.52-24.75 220.52-27.35L220.52-27.35 225.07-27.35Q225.07-25.55 226.12-24.13 227.17-22.7 228.82-21.43 230.47-20.15 232.35-18.85 234.22-17.55 235.87-16.03 237.52-14.5 238.57-12.53 239.62-10.55 239.62-7.9L239.62-7.9ZM225.07-27.25L220.52-27.25Q220.52-30 221.77-31.95 223.02-33.9 225.27-34.95 227.52-36 230.42-36L230.42-36 230.42-32.1Q227.92-32.1 226.5-30.8 225.07-29.5 225.07-27.25L225.07-27.25ZM235.07-8L239.62-8Q239.62-5.3 238.37-3.33 237.12-1.35 234.9-0.3 232.67 0.75 229.72 0.75L229.72 0.75 229.72-3.2Q232.22-3.2 233.65-4.48 235.07-5.75 235.07-8L235.07-8ZM239.37-28.55L235.12-27.7Q234.87-29.95 233.55-31.03 232.22-32.1 230.42-32.1L230.42-32.1 230.42-36Q232.77-36 234.67-35.05 236.57-34.1 237.82-32.45 239.07-30.8 239.37-28.55L239.37-28.55ZM219.57-9.05L223.72-9.9Q224.02-6.75 225.6-4.98 227.17-3.2 229.72-3.2L229.72-3.2 229.72 0.75Q225.47 0.75 222.8-1.85 220.12-4.45 219.57-9.05L219.57-9.05ZM250.62-7.65L246.07-7.65 246.07-35.3 250.62-35.25 250.62-7.65ZM256.92-21.5L243.17-21.5 243.17-25.25 256.92-25.25 256.92-21.5ZM246.07-7.7L246.07-7.7 250.62-7.7Q250.62-6.25 251.02-5.25 251.42-4.25 252.17-3.73 252.92-3.2 253.97-3.2L253.97-3.2 253.57 0.75Q250.07 0.75 248.07-1.48 246.07-3.7 246.07-7.7ZM256.32-4.05L256.32-4.05 258.12-0.8Q257.12-0.05 255.95 0.35 254.77 0.75 253.57 0.75L253.57 0.75 253.97-3.2Q254.62-3.2 255.2-3.43 255.77-3.65 256.32-4.05ZM278.47-8.95L273.92-8.95 273.92-16.3 278.47-16.3 278.47-8.95ZM264.42-8.95L259.87-8.95 259.87-16.3 264.42-16.3 264.42-8.95ZM269.32-22.05L269.02-22.05 269.02-26 269.32-26 269.32-22.05ZM269.32 0.75L269.02 0.75 269.02-3.2 269.32-3.2 269.32 0.75ZM264.42-16.25L259.87-16.25Q259.87-19.05 261.09-21.25 262.32-23.45 264.39-24.73 266.47-26 269.12-26L269.12-26 269.12-22.05Q266.92-22.05 265.67-20.55 264.42-19.05 264.42-16.25L264.42-16.25ZM278.47-16.25L278.47-16.25 273.92-16.25Q273.92-19.05 272.69-20.55 271.47-22.05 269.22-22.05L269.22-22.05 269.22-26Q271.87-26 273.94-24.73 276.02-23.45 277.24-21.25 278.47-19.05 278.47-16.25ZM259.87-9L259.87-9 264.42-9Q264.42-6.25 265.67-4.73 266.92-3.2 269.12-3.2L269.12-3.2 269.12 0.75Q266.47 0.75 264.39-0.53 262.32-1.8 261.09-4 259.87-6.2 259.87-9ZM273.92-9L278.47-9Q278.47-6.2 277.24-4 276.02-1.8 273.94-0.53 271.87 0.75 269.22 0.75L269.22 0.75 269.22-3.2Q271.47-3.2 272.69-4.73 273.92-6.25 273.92-9L273.92-9ZM287.67 0L283.12 0 283.12-25.25 287.67-25.25 287.67 0ZM287.67-16.9L285.62-16.9Q285.62-19.45 286.47-21.48 287.32-23.5 288.79-24.65 290.27-25.8 292.07-25.8L292.07-25.8 291.67-21.55Q289.92-21.55 288.79-20.23 287.67-18.9 287.67-16.9L287.67-16.9ZM296.22-24.2L294.67-20.4Q294.07-20.9 293.24-21.23 292.42-21.55 291.67-21.55L291.67-21.55 292.07-25.8Q293.22-25.8 294.32-25.38 295.42-24.95 296.22-24.2L296.22-24.2ZM315.61-11.25L298.56-11.25 298.56-14.5 315.61-14.5 315.61-11.25ZM306.56 0.8L306.31 0.8 306.31-3.15 306.56-3.15 306.56 0.8ZM301.66-8.95L297.11-8.95 297.11-16.3 301.66-16.3 301.66-8.95ZM315.61-14.5L311.06-14.5 311.06-17.1 315.61-17.1 315.61-14.5ZM315.61-17.1L315.61-17.1 311.06-17.1Q311.06-19.3 309.74-20.7 308.41-22.1 306.31-22.1L306.31-22.1 306.31-26Q309.01-26 311.09-24.85 313.16-23.7 314.39-21.68 315.61-19.65 315.61-17.1ZM311.26-7.5L311.26-7.5 315.51-6.65Q315.21-4.5 313.96-2.8 312.71-1.1 310.81-0.15 308.91 0.8 306.56 0.8L306.56 0.8 306.56-3.15Q308.36-3.15 309.69-4.23 311.01-5.3 311.26-7.5ZM301.66-16.25L297.11-16.25Q297.11-19.1 298.34-21.28 299.56-23.45 301.64-24.73 303.71-26 306.36-26L306.36-26 306.36-22.1Q304.16-22.1 302.91-20.58 301.66-19.05 301.66-16.25L301.66-16.25ZM297.11-8.95L297.11-8.95 301.66-8.95Q301.66-6.2 302.91-4.67 304.16-3.15 306.36-3.15L306.36-3.15 306.36 0.8Q303.71 0.8 301.64-0.48 299.56-1.75 298.34-3.95 297.11-6.15 297.11-8.95Z" opacity="1" transform="matrix(1,0,0,1,0,0)" fill="#a997ad" class="slogan-text-1" data-fill-palette-color="secondary" id="text-1"></path></svg></g></svg></g></svg></g></svg></g><g transform="matrix(1,0,0,1,75.54432000000001,0)"><svg viewBox="0 0 244.43136 187.4544112544644" height="187.4544112544644" width="244.43136"><g><svg xmlns="http://www.w3.org/2000/svg" xmlns:xlink="http://www.w3.org/1999/xlink" version="1.1" x="8" y="0" viewBox="0.5319993165429914 9.407 98.93300599784273 81.186" enable-background="new 0 0 100 100" xml:space="preserve" height="187.4544112544644" width="228.43136" class="icon-icon-0" data-fill-palette-color="accent" id="icon-0"><g fill="#a997ad" data-fill-palette-color="accent"><path fill="#a997ad" d="M82.269 56.016H48.895C47.711 56.016 46.751 56.976 46.751 58.16V79.656C46.751 80.84 47.711 81.8 48.895 81.8H82.269C83.453 81.8 84.413 80.84 84.413 79.656V58.161C84.413 56.976 83.453 56.016 82.269 56.016M80.125 77.513H51.039V60.305H80.124V77.513z" data-fill-palette-color="accent"></path><path fill="#a997ad" d="M98.855 30.269L89.685 20.909V11.551C89.685 10.367 88.725 9.407 87.541 9.407H12.459C11.275 9.407 10.315 10.367 10.315 11.551V20.909L1.145 30.269A2.14 2.14 0 0 0 0.532 31.77V39.93C0.532 44.126 2.77 47.809 6.114 49.848V88.449C6.114 89.633 7.074 90.593 8.258 90.593H19.073C19.084 90.593 19.093 90.59 19.104 90.59S19.124 90.593 19.135 90.593C20.319 90.593 21.279 89.633 21.279 88.449V60.305H36.65V88.449C36.65 89.633 37.61 90.593 38.794 90.593H91.302C92.486 90.593 93.446 89.633 93.446 88.449V50.1C97.031 48.122 99.465 44.305 99.465 39.93V31.77A2.14 2.14 0 0 0 98.855 30.269M14.604 13.696H85.396V19.641H14.604zM89.16 86.304H40.94V58.161C40.94 56.977 39.98 56.017 38.796 56.017H19.136C17.952 56.017 16.992 56.977 16.992 58.161V86.305H10.404V51.408C10.971 51.494 11.551 51.538 12.142 51.538 16.043 51.538 19.5 49.604 21.607 46.644 23.713 49.604 27.171 51.538 31.072 51.538S38.43 49.604 40.537 46.644C42.643 49.604 46.101 51.538 50.002 51.538S57.361 49.604 59.467 46.644C61.573 49.603 65.031 51.538 68.932 51.538S76.29 49.604 78.397 46.644C80.503 49.604 83.961 51.538 87.862 51.538 88.302 51.538 88.736 51.511 89.164 51.463V86.304zM95.178 39.929C95.178 43.965 91.894 47.249 87.858 47.249S80.538 43.965 80.538 39.929A2.144 2.144 0 0 0 76.25 39.929C76.25 43.965 72.966 47.249 68.93 47.249S61.61 43.965 61.61 39.929A2.144 2.144 0 0 0 57.322 39.929C57.322 43.965 54.038 47.249 50.001 47.249S42.681 43.965 42.681 39.929A2.144 2.144 0 0 0 38.393 39.929C38.393 43.965 35.109 47.249 31.073 47.249S23.753 43.965 23.753 39.929A2.144 2.144 0 0 0 19.465 39.929C19.465 43.965 16.181 47.249 12.145 47.249S4.825 43.965 4.825 39.929V32.644L13.364 23.928H86.64L95.179 32.644V39.929z" data-fill-palette-color="accent"></path></g></svg></g></svg></g><g></g></svg></g><defs></defs></svg><rect width="211.49890769477582" height="247.2" fill="none" stroke="none" visibility="hidden"></rect></g></svg></g></svg>